<svg width="1920" height="1080" viewBox="0 0 1920 1080" fill="none" xmlns="http://www.w3.org/2000/svg">
<rect x="191" y="27" width="1274" height="550" rx="20" fill="#176B87" fill-opacity="0.34"/>
<rect x="1487" y="27" width="400" height="550" rx="20" fill="#176B87" fill-opacity="0.34"/>
<path d="M1487 614C1487 602.954 1495.95 594 1507 594H1867C1878.05 594 1887 602.954 1887 614V1034C1887 1045.05 1878.05 1054 1867 1054H1507C1495.95 1054 1487 1045.05 1487 1034V614Z" fill="#176B87" fill-opacity="0.34"/>
<rect x="191" y="594" width="1274" height="459" rx="20" fill="#176B87" fill-opacity="0.34"/>
<rect width="1920" height="1080" rx="10" fill="url(#paint0_linear_843_3793)"/>
<g style="mix-blend-mode:overlay" opacity="0.3">
<mask id="path-6-inside-1_843_3793" fill="white">
<path d="M0 10C0 4.47718 4.47715 0 10 0H137C142.523 0 147 4.47715 147 10V1070C147 1075.52 142.523 1080 137 1080H10C4.47715 1080 0 1075.52 0 1070V10Z"/>
</mask>
<path d="M0 10C0 4.47718 4.47715 0 10 0H137C142.523 0 147 4.47715 147 10V1070C147 1075.52 142.523 1080 137 1080H10C4.47715 1080 0 1075.52 0 1070V10Z" fill="url(#paint1_linear_843_3793)"/>
<path d="M0 0H147H0ZM147 1080H0H147ZM0 1080V0V1080ZM137 0C145.837 0 153 7.16344 153 16V1064C153 1072.84 145.837 1080 137 1080C139.209 1080 141 1075.52 141 1070V10C141 4.47715 139.209 0 137 0Z" fill="#00101D" fill-opacity="0.55" mask="url(#path-6-inside-1_843_3793)"/>
</g>
<defs>
<linearGradient id="paint0_linear_843_3793" x1="960" y1="0" x2="960" y2="1080" gradientUnits="userSpaceOnUse">
<stop offset="0.0724332" stop-color="#020715"/>
<stop offset="0.331838" stop-color="#001A2E"/>
<stop offset="0.544447" stop-color="#001B2E"/>
<stop offset="0.842389" stop-color="#003357"/>
<stop offset="0.940034" stop-color="#005796"/>
<stop offset="1" stop-color="#258F96"/>
</linearGradient>
<linearGradient id="paint1_linear_843_3793" x1="73.5" y1="0" x2="73.5" y2="1080" gradientUnits="userSpaceOnUse">
<stop stop-color="#07161E"/>
<stop offset="0.166667" stop-color="#194B67"/>
<stop offset="0.333333" stop-color="#1C6188"/>
<stop offset="0.5" stop-color="#1E638A"/>
<stop offset="0.666667" stop-color="#3998A0"/>
<stop offset="0.833333" stop-color="#27BBB8"/>
<stop offset="1" stop-color="#14FFE6"/>
</linearGradient>
</defs>
</svg>
