<svg width="167" height="165" viewBox="0 0 167 165" fill="none" xmlns="http://www.w3.org/2000/svg">
<path d="M39.2548 101.701L39.1232 101.774L39.0865 101.925C39.0339 102.142 39.1288 102.327 39.2415 102.443C39.3402 102.545 39.4675 102.613 39.5799 102.662C39.8119 102.764 40.1342 102.848 40.4969 102.924C41.0774 103.044 41.8357 103.158 42.6519 103.28C42.8654 103.312 43.0829 103.344 43.3022 103.378C44.3692 103.54 45.4901 103.725 46.4646 103.967C47.4562 104.213 48.2309 104.505 48.6527 104.847C48.8212 104.984 48.9939 105.136 49.1195 105.295C49.2494 105.459 49.284 105.572 49.2789 105.646C49.2648 105.846 49.1733 106.15 48.9934 106.553C48.8173 106.948 48.5712 107.408 48.2766 107.91C47.6873 108.914 46.9196 110.063 46.1689 111.172C46.0589 111.334 45.9491 111.496 45.8403 111.656C45.2109 112.584 44.6146 113.463 44.183 114.164C43.9309 114.574 43.7254 114.938 43.602 115.224C43.5415 115.365 43.4907 115.509 43.4713 115.642C43.4557 115.75 43.439 116 43.6399 116.178C43.9965 116.495 51.3197 122.659 58.5781 127.277C62.1982 129.581 65.847 131.529 68.6195 132.15C70.0022 132.46 71.2378 132.456 72.1431 131.922C73.0751 131.373 73.566 130.321 73.5827 128.771C73.6378 123.686 75.0731 115.794 76.7011 107.96C77.2773 105.188 77.8776 102.423 78.4474 99.7983C79.4824 95.0314 80.4169 90.7275 80.9241 87.68C81.1628 86.246 79.9628 84.9505 78.5633 85.1466C67.7321 86.6641 59.6622 93.4086 56.6678 97.3289C55.694 97.0256 54.3493 97.0556 52.8812 97.2613C51.2598 97.4886 49.4184 97.9416 47.6188 98.4804C44.0246 99.5567 40.5467 100.991 39.2548 101.701Z" fill="url(#paint0_linear_842_3654)"/>
<path d="M39.2548 101.701L39.1232 101.774L39.0865 101.925C39.0339 102.142 39.1288 102.327 39.2415 102.443C39.3402 102.545 39.4675 102.613 39.5799 102.662C39.8119 102.764 40.1342 102.848 40.4969 102.924C41.0774 103.044 41.8357 103.158 42.6519 103.28C42.8654 103.312 43.0829 103.344 43.3022 103.378C44.3692 103.54 45.4901 103.725 46.4646 103.967C47.4562 104.213 48.2309 104.505 48.6527 104.847C48.8212 104.984 48.9939 105.136 49.1195 105.295C49.2494 105.459 49.284 105.572 49.2789 105.646C49.2648 105.846 49.1733 106.15 48.9934 106.553C48.8173 106.948 48.5712 107.408 48.2766 107.91C47.6873 108.914 46.9196 110.063 46.1689 111.172C46.0589 111.334 45.9491 111.496 45.8403 111.656C45.2109 112.584 44.6146 113.463 44.183 114.164C43.9309 114.574 43.7254 114.938 43.602 115.224C43.5415 115.365 43.4907 115.509 43.4713 115.642C43.4557 115.75 43.439 116 43.6399 116.178C43.9965 116.495 51.3197 122.659 58.5781 127.277C62.1982 129.581 65.847 131.529 68.6195 132.15C70.0022 132.46 71.2378 132.456 72.1431 131.922C73.0751 131.373 73.566 130.321 73.5827 128.771C73.6378 123.686 75.0731 115.794 76.7011 107.96C77.2773 105.188 77.8776 102.423 78.4474 99.7983C79.4824 95.0314 80.4169 90.7275 80.9241 87.68C81.1628 86.246 79.9628 84.9505 78.5633 85.1466C67.7321 86.6641 59.6622 93.4086 56.6678 97.3289C55.694 97.0256 54.3493 97.0556 52.8812 97.2613C51.2598 97.4886 49.4184 97.9416 47.6188 98.4804C44.0246 99.5567 40.5467 100.991 39.2548 101.701Z" stroke="#D9D9D9" stroke-width="0.739905"/>
<path d="M39.2548 101.701L39.1232 101.774L39.0865 101.925C39.0339 102.142 39.1288 102.327 39.2415 102.443C39.3402 102.545 39.4675 102.613 39.5799 102.662C39.8119 102.764 40.1342 102.848 40.4969 102.924C41.0774 103.044 41.8357 103.158 42.6519 103.28C42.8654 103.312 43.0829 103.344 43.3022 103.378C44.3692 103.54 45.4901 103.725 46.4646 103.967C47.4562 104.213 48.2309 104.505 48.6527 104.847C48.8212 104.984 48.9939 105.136 49.1195 105.295C49.2494 105.459 49.284 105.572 49.2789 105.646C49.2648 105.846 49.1733 106.15 48.9934 106.553C48.8173 106.948 48.5712 107.408 48.2766 107.91C47.6873 108.914 46.9196 110.063 46.1689 111.172C46.0589 111.334 45.9491 111.496 45.8403 111.656C45.2109 112.584 44.6146 113.463 44.183 114.164C43.9309 114.574 43.7254 114.938 43.602 115.224C43.5415 115.365 43.4907 115.509 43.4713 115.642C43.4557 115.75 43.439 116 43.6399 116.178C43.9965 116.495 51.3197 122.659 58.5781 127.277C62.1982 129.581 65.847 131.529 68.6195 132.15C70.0022 132.46 71.2378 132.456 72.1431 131.922C73.0751 131.373 73.566 130.321 73.5827 128.771C73.6378 123.686 75.0731 115.794 76.7011 107.96C77.2773 105.188 77.8776 102.423 78.4474 99.7983C79.4824 95.0314 80.4169 90.7275 80.9241 87.68C81.1628 86.246 79.9628 84.9505 78.5633 85.1466C67.7321 86.6641 59.6622 93.4086 56.6678 97.3289C55.694 97.0256 54.3493 97.0556 52.8812 97.2613C51.2598 97.4886 49.4184 97.9416 47.6188 98.4804C44.0246 99.5567 40.5467 100.991 39.2548 101.701Z" stroke="url(#paint1_linear_842_3654)" stroke-opacity="0.3" stroke-width="0.739905"/>
<path d="M69.9631 92.769C70.2251 92.6306 70.3305 92.2909 70.1272 92.0835C69.8448 91.7953 69.4654 91.5842 69.0175 91.4708C68.4726 91.3329 67.8547 91.347 67.2402 91.5079C67.0425 91.5597 66.9298 91.7723 66.9783 91.9737V91.9737C67.0311 92.1924 67.2527 92.3113 67.4697 92.267C67.8428 92.1908 68.2127 92.1934 68.5437 92.2771C68.8123 92.3451 69.0451 92.4639 69.2295 92.6242C69.4322 92.8005 69.7202 92.8973 69.9631 92.769V92.769Z" fill="#343434"/>
<path d="M75.0061 91.4848L79.5522 86.3134C79.6863 86.1608 79.9168 86.1411 80.0749 86.2686C80.253 86.4123 80.2642 86.6797 80.0988 86.8377L75.1202 91.5943C75.0733 91.639 74.9955 91.6116 74.987 91.5474C74.9841 91.5247 74.991 91.5019 75.0061 91.4848Z" fill="#343434"/>
<path d="M143.425 83.7505C143.425 113.152 118.154 136.986 86.9809 136.986C65.2952 136.986 46.4658 125.452 37.013 108.533C44.505 119.763 57.7632 127.226 72.8698 127.226C83.3046 127.226 113.089 120.056 113.089 100.73C113.089 81.2109 108.65 71.8742 105.505 67.0648C103.153 60.4104 93.0789 61.4705 90.1522 61.4212C87.1418 60.948 73.7571 71.0332 72.1892 72.364C71.0916 73.2957 70.7062 75.5286 65.8144 76.3567C60.9225 77.1848 57.4 76.0117 56.2502 75.3216C54.1178 75.5582 53.0621 74.7301 52.8008 74.2864C47.4072 75.8243 42.6094 74.3357 40.8847 73.3992C38.3238 72.9555 33.9642 69.9389 37.013 61.4212C40.0619 52.9036 46.1075 46.6489 48.7491 44.5863C58.8043 35.8504 72.232 30.5152 86.9809 30.5152C118.154 30.5152 143.425 54.3494 143.425 83.7505Z" fill="#13326F"/>
<path d="M103.224 62.0869C103.224 62.0869 128.457 75.111 114.315 107.772C117.415 82.8715 108.212 66.9401 103.224 62.0869Z" fill="#29579D"/>
<path d="M102.474 47.8195C102.474 47.8195 125.431 43.8026 137.096 76.597C123.648 55.8484 108.411 48.7668 102.474 47.8195Z" fill="#29579D"/>
<path d="M130.766 91.0853C129.709 78.2388 123.783 70.6545 120.952 68.4682C127.243 76.0826 134.805 97.9608 114.725 124.558C118.436 121.694 131.823 103.932 130.766 91.0853Z" fill="#29579D"/>
<path d="M79.7088 129.94C87.0825 129.554 103.212 126.019 108.741 114.972C107.859 121.112 100.817 132.702 79.7088 129.94Z" fill="#29579D"/>
<path d="M59.3532 60.2893C71.9657 36.0923 87.87 34.7177 93.8757 37.6864C75.7321 48.7838 70.4838 63.5616 70.4285 71.6055C70.4151 73.5427 69.3655 75.5261 67.4802 75.9589C53.1237 79.255 56.18 67.0211 59.3532 60.2893Z" fill="#01203D"/>
<path d="M40.0951 59.1747C51.5315 35.2722 67.8481 32.8073 73.6611 35.4747C56.5312 46.9225 52.7334 63.6457 53.1526 72.0129C53.2484 73.9249 52.2108 75.1888 50.4482 74.4475C49.8503 74.1961 49.3158 74.019 48.968 74.1134C35.3265 77.8127 37.2396 65.8 40.0951 59.1747Z" fill="#01203D"/>
<path d="M74.4064 35.8137C51.9622 47.643 50.5226 68.119 52.2919 74.6648C51.5235 74.8661 50.0118 75.172 49.3329 75.2567C48.4891 75.4179 47.4096 75.2567 46.6698 75.2567C43.583 75.4604 40.2194 73.9172 38.5492 73.1032C33.2078 70.5002 35.8781 61.6264 38.3838 56.7606C40.1047 53.7443 41.244 52.3113 43.4598 49.7653C45.5096 47.4099 46.9647 45.6628 49.184 44.1831C60.3163 34.7888 69.69 33.3491 74.4064 35.8137Z" fill="white"/>
<path d="M56.2439 59.6598C70.9637 33.5084 87.9269 33.9825 94.5685 37.4885C73.8698 49.0653 69.1524 63.785 69.3644 72.2011C69.4143 74.1836 68.2938 76.1723 66.35 76.5647C49.7455 79.917 52.5014 66.9933 56.2439 59.6598Z" fill="white"/>
<path d="M87.2008 53.295C104.369 50.8335 108.208 56.1705 108.809 60.0258C104.919 58.5445 102.748 58.8453 99.6531 58.6216C93.6817 58.1899 89.5654 60.0316 86.9754 61.9233C85.4959 63.004 83.4131 63.3335 82.0654 62.0794C76.5071 56.9068 82.7499 54.1007 87.2008 53.295Z" fill="#01203D"/>
<path d="M86.3732 52.3597C103.521 49.8182 108.918 56.5345 109.473 60.2103C98.055 56.1545 89.934 58.294 85.7287 60.8104C84.2117 61.7181 82.1921 62.0256 80.8673 60.8433C75.3775 55.9439 81.9162 53.1803 86.3732 52.3597Z" fill="white"/>
<g style="mix-blend-mode:hard-light" filter="url(#filter0_f_842_3654)">
<ellipse cx="83.5" cy="82.4297" rx="68.5" ry="67.4297" fill="#823853" fill-opacity="0.2"/>
</g>
<g style="mix-blend-mode:hard-light" filter="url(#filter1_f_842_3654)">
<path d="M139.049 82.4298C139.049 112.594 114.202 137.087 83.4998 137.087C52.7979 137.087 27.9504 112.594 27.9504 82.4298C27.9504 52.266 52.7979 27.7723 83.4998 27.7723C114.202 27.7723 139.049 52.266 139.049 82.4298Z" stroke="#8875FF" stroke-width="3.06786"/>
</g>
<g style="mix-blend-mode:hard-light" filter="url(#filter2_f_842_3654)">
<path d="M138.577 82.4298C138.577 112.326 113.948 136.615 83.4998 136.615C53.0515 136.615 28.4224 112.326 28.4224 82.4298C28.4224 52.5336 53.0515 28.2443 83.4998 28.2443C113.948 28.2443 138.577 52.5336 138.577 82.4298Z" stroke="#989FE3" stroke-width="4.01181"/>
</g>
<g style="mix-blend-mode:hard-light" filter="url(#filter3_ddi_842_3654)">
<path d="M139.049 82.4298C139.049 112.594 114.202 137.087 83.4998 137.087C52.7979 137.087 27.9504 112.594 27.9504 82.4298C27.9504 52.266 52.7979 27.7723 83.4998 27.7723C114.202 27.7723 139.049 52.266 139.049 82.4298Z" stroke="#FB37FF" stroke-opacity="0.2" stroke-width="3.06786"/>
</g>
<g filter="url(#filter4_f_842_3654)">
<path d="M139.639 82.4298C139.639 112.928 114.519 137.677 83.4998 137.677C52.4808 137.677 27.3605 112.928 27.3605 82.4298C27.3605 51.9314 52.4808 27.1823 83.4998 27.1823C114.519 27.1823 139.639 51.9314 139.639 82.4298Z" stroke="#9997FF" stroke-width="1.88791"/>
</g>
<g filter="url(#filter5_f_842_3654)">
<path d="M140.111 82.4298C140.111 113.196 114.772 138.149 83.4998 138.149C52.2272 138.149 26.8885 113.196 26.8885 82.4298C26.8885 51.6638 52.2272 26.7104 83.4998 26.7104C114.772 26.7104 140.111 51.6638 140.111 82.4298Z" stroke="white" stroke-width="0.943956"/>
</g>
<defs>
<filter id="filter0_f_842_3654" x="0.840658" y="0.840658" width="165.319" height="163.178" filterUnits="userSpaceOnUse" color-interpolation-filters="sRGB">
<feFlood flood-opacity="0" result="BackgroundImageFix"/>
<feBlend mode="normal" in="SourceGraphic" in2="BackgroundImageFix" result="shape"/>
<feGaussianBlur stdDeviation="7.07967" result="effect1_foregroundBlur_842_3654"/>
</filter>
<filter id="filter1_f_842_3654" x="12.2572" y="12.079" width="142.485" height="140.701" filterUnits="userSpaceOnUse" color-interpolation-filters="sRGB">
<feFlood flood-opacity="0" result="BackgroundImageFix"/>
<feBlend mode="normal" in="SourceGraphic" in2="BackgroundImageFix" result="shape"/>
<feGaussianBlur stdDeviation="7.07967" result="effect1_foregroundBlur_842_3654"/>
</filter>
<filter id="filter2_f_842_3654" x="21.6967" y="21.5186" width="123.606" height="121.822" filterUnits="userSpaceOnUse" color-interpolation-filters="sRGB">
<feFlood flood-opacity="0" result="BackgroundImageFix"/>
<feBlend mode="normal" in="SourceGraphic" in2="BackgroundImageFix" result="shape"/>
<feGaussianBlur stdDeviation="2.35989" result="effect1_foregroundBlur_842_3654"/>
</filter>
<filter id="filter3_ddi_842_3654" x="20.2808" y="24.8224" width="126.438" height="124.654" filterUnits="userSpaceOnUse" color-interpolation-filters="sRGB">
<feFlood flood-opacity="0" result="BackgroundImageFix"/>
<feColorMatrix in="SourceAlpha" type="matrix" values="0 0 0 0 0 0 0 0 0 0 0 0 0 0 0 0 0 0 127 0" result="hardAlpha"/>
<feOffset dy="3.06786"/>
<feGaussianBlur stdDeviation="1.17995"/>
<feColorMatrix type="matrix" values="0 0 0 0 0.3 0 0 0 0 0 0 0 0 0 0.26 0 0 0 0.7 0"/>
<feBlend mode="multiply" in2="BackgroundImageFix" result="effect1_dropShadow_842_3654"/>
<feColorMatrix in="SourceAlpha" type="matrix" values="0 0 0 0 0 0 0 0 0 0 0 0 0 0 0 0 0 0 127 0" result="hardAlpha"/>
<feOffset dy="4.71978"/>
<feGaussianBlur stdDeviation="3.06786"/>
<feColorMatrix type="matrix" values="0 0 0 0 0.6 0 0 0 0 0 0 0 0 0 0.6 0 0 0 1 0"/>
<feBlend mode="color-dodge" in2="effect1_dropShadow_842_3654" result="effect2_dropShadow_842_3654"/>
<feBlend mode="normal" in="SourceGraphic" in2="effect2_dropShadow_842_3654" result="shape"/>
<feColorMatrix in="SourceAlpha" type="matrix" values="0 0 0 0 0 0 0 0 0 0 0 0 0 0 0 0 0 0 127 0" result="hardAlpha"/>
<feOffset dx="-0.306786" dy="0.613572"/>
<feGaussianBlur stdDeviation="0.153393"/>
<feComposite in2="hardAlpha" operator="arithmetic" k2="-1" k3="1"/>
<feColorMatrix type="matrix" values="0 0 0 0 1 0 0 0 0 1 0 0 0 0 1 0 0 0 0.5 0"/>
<feBlend mode="normal" in2="shape" result="effect3_innerShadow_842_3654"/>
</filter>
<filter id="filter4_f_842_3654" x="25.9445" y="25.7664" width="115.11" height="113.327" filterUnits="userSpaceOnUse" color-interpolation-filters="sRGB">
<feFlood flood-opacity="0" result="BackgroundImageFix"/>
<feBlend mode="normal" in="SourceGraphic" in2="BackgroundImageFix" result="shape"/>
<feGaussianBlur stdDeviation="0.235989" result="effect1_foregroundBlur_842_3654"/>
</filter>
<filter id="filter5_f_842_3654" x="26.1019" y="25.9237" width="114.796" height="113.012" filterUnits="userSpaceOnUse" color-interpolation-filters="sRGB">
<feFlood flood-opacity="0" result="BackgroundImageFix"/>
<feBlend mode="normal" in="SourceGraphic" in2="BackgroundImageFix" result="shape"/>
<feGaussianBlur stdDeviation="0.157326" result="effect1_foregroundBlur_842_3654"/>
</filter>
<linearGradient id="paint0_linear_842_3654" x1="76.8338" y1="107.944" x2="42.8582" y2="101.419" gradientUnits="userSpaceOnUse">
<stop offset="0.045" stop-color="#D9D9D9"/>
<stop offset="0.19" stop-color="#737373"/>
<stop offset="0.79" stop-color="#737373"/>
</linearGradient>
<linearGradient id="paint1_linear_842_3654" x1="36.327" y1="110.715" x2="80.5166" y2="94.3512" gradientUnits="userSpaceOnUse">
<stop offset="0.105" stop-color="#C7F0F0"/>
<stop offset="0.655" stop-color="#666666"/>
</linearGradient>
</defs>
</svg>
